<?xml version="1.0" standalone="no"?><!DOCTYPE svg PUBLIC "-//W3C//DTD SVG 1.1//EN" "http://www.w3.org/Graphics/SVG/1.1/DTD/svg11.dtd"><svg t="1564196434593" class="icon" viewBox="0 0 1024 1024" version="1.1" xmlns="http://www.w3.org/2000/svg" p-id="1253" xmlns:xlink="http://www.w3.org/1999/xlink" width="200" height="200"><defs><style type="text/css"></style></defs><path d="M896 416h-41.6L768 211.2c-6.4-12.8-19.2-19.2-32-19.2H288c-12.8 0-25.6 6.4-28.8 19.2L169.6 416H128c-35.2 0-64 28.8-64 64v192c0 35.2 28.8 64 64 64v32c0 35.2 28.8 64 64 64h96c35.2 0 64-28.8 64-64v-32h320v32c0 35.2 28.8 64 64 64h96c35.2 0 64-28.8 64-64v-32c35.2 0 64-28.8 64-64v-192c0-35.2-28.8-64-64-64zM310.4 256h406.4l67.2 160h-544l70.4-160zM288 768H192v-32h96v32z m544 0h-96v-32h96v32z m64-96H128v-192h768v192z" p-id="1254" fill="#1890ff"></path><path d="M224 576m-32 0a32 32 0 1 0 64 0 32 32 0 1 0-64 0Z" p-id="1255" fill="#1890ff"></path><path d="M800 576m-32 0a32 32 0 1 0 64 0 32 32 0 1 0-64 0Z" p-id="1256" fill="#1890ff"></path><path d="M672 544H352c-16 0-32 16-32 32s16 32 32 32h320c16 0 32-16 32-32s-16-32-32-32z" p-id="1257" fill="#1890ff"></path></svg>